Coordinates
version=1
nRows=19
nColumns=36
inDegrees=yes

Units are S.I. units (second, meters, Newtons, ...)
If the header above contains a line with 'inDegrees', this indicates whether rotational values are in degrees (yes) or radians (no).

endheader
time	pelvis_tilt	pelvis_list	pelvis_rotation	pelvis_tx	pelvis_ty	pelvis_tz	hip_flexion_r	hip_adduction_r	hip_rotation_r	knee_angle_r	knee_angle_r_beta	ankle_angle_r	subtalar_angle_r	mtp_angle_r	hip_flexion_l	hip_adduction_l	hip_rotation_l	knee_angle_l	knee_angle_l_beta	ankle_angle_l	subtalar_angle_l	mtp_angle_l	lumbar_extension	lumbar_bending	lumbar_rotation	arm_flex_r	arm_add_r	arm_rot_r	elbow_flex_r	pro_sup_r	arm_flex_l	arm_add_l	arm_rot_l	elbow_flex_l	pro_sup_l
      0.00000000	     -6.46698045	     -2.15470001	      0.53834208	     -0.91271313	      1.26892211	     -0.08897178	      6.23708587	      2.10812231	     -3.90938663	      5.55676388	      0.09698383	      2.35528759	    -13.97674568	     -6.90596479	      4.20835918	     -2.78234254	      2.57759136	      2.75392384	      0.04806504	      6.91090052	     -3.24920651	     -6.90596479	     -0.96139896	     -1.08176260	     -5.35917626	    -22.08271582	    -33.97023114	     20.25588651	    120.12727011	     97.28878435	    -40.09463110	    -23.91459691	      2.68481522	    126.65773928	    100.41909178
      0.00416670	     -8.58447871	     -2.76047867	      0.95493794	     -0.91306608	      1.26431822	     -0.08961913	      8.47531191	      2.93372528	     -2.62594019	      6.01620467	      0.10500258	      4.18123707	    -12.31705920	     -6.95156374	      6.82523607	     -3.15246712	      3.52524289	      2.60601594	      0.04548356	      6.67349843	     -2.54485240	     -6.95156374	      1.87333352	     -0.81389598	     -5.48466525	    -24.16366038	    -34.76799662	     20.24890546	    119.59599310	     96.50467814	    -42.15588694	    -24.29891054	      3.15450061	    128.31309070	     99.51514598
      0.00833330	     -9.10713147	     -2.47493377	      0.81318740	     -0.91128721	      1.27013758	     -0.08991087	      8.66319281	      2.74509011	     -3.50545985	      5.35553694	      0.09347175	      4.40521672	    -11.43505917	     -7.05478929	      7.39773080	     -2.90956428	      3.26309735	      2.51521366	      0.04389876	      6.12360158	     -2.46336652	     -7.05478929	      2.59965006	     -1.26423364	     -3.66144194	    -27.51864064	    -32.85490943	     16.51209299	    119.21326091	    101.06293108	    -40.57682856	    -25.36442365	      4.49609641	    126.79381860	    101.76673568
      0.01250000	     -9.06793543	     -2.42390349	      0.82840235	     -0.91219067	      1.26233185	     -0.08999632	      8.49156069	      2.74755947	     -3.36956993	      5.03088723	      0.08780555	      4.63346667	    -11.58981079	     -7.10166904	      7.16592619	     -2.78888147	      3.29402573	      2.23681845	      0.03903985	      6.45104917	     -2.80744108	     -7.10166904	      2.44307006	     -1.46622876	     -3.68691049	    -27.40702198	    -32.46720705	     16.32255172	    119.04847455	    101.02514951	    -39.98994130	    -25.53469864	      3.90688809	    126.84082656	    100.79418509
      0.01666670	     -9.30108326	     -2.34027349	      0.73285219	     -0.91128440	      1.26316126	     -0.08955453	      8.56397391	      2.74350889	     -3.53264587	      4.77875261	      0.08340497	      4.65079697	    -11.82479509	     -7.21317644	      7.21662143	     -2.65878909	      3.64202138	      1.97244462	      0.03442565	      6.69088485	     -3.20361429	     -7.21317644	      2.64573539	     -1.59265029	     -3.37416682	    -27.35304949	    -32.05164312	     15.86424802	    118.84342112	    103.67816288	    -39.46612999	    -25.47886572	      3.37596241	    126.52999867	    102.42108400
      0.02083330	     -9.42337424	     -2.22463184	      0.74354036	     -0.91172668	      1.26222434	     -0.08897139	      8.64465696	      2.70174128	     -3.65152982	      4.61613846	      0.08056681	      5.04981463	    -11.67291091	     -7.31270437	      7.33165832	     -2.51361081	      3.83615202	      1.88688283	      0.03293232	      6.98786509	     -3.71991668	     -7.31270437	      2.67507612	     -1.72326144	     -3.31299523	    -27.25228938	    -32.10686177	     15.86943758	    118.81751762	    104.97294011	    -39.09185393	    -25.77100009	      2.90559538	    126.28942546	    103.87601069
      0.02500000	     -9.45185308	     -2.13307627	      0.72078754	     -0.91111864	      1.26460970	     -0.09052254	      8.53179419	      2.56997251	     -4.02041176	      4.45850517	      0.07781559	      4.63527859	    -12.11507396	     -7.34332256	      7.33397362	     -2.37501035	      4.07041059	      1.84549342	      0.03220994	      7.09153044	     -3.91454600	     -7.34332256	      2.74774135	     -1.75144312	     -3.11114274	    -27.12915909	    -32.16618409	     16.15052192	    118.14475700	    102.08588542	    -38.97161243	    -25.74831860	      2.82688309	    125.89423578	    101.16288125
      0.02916670	     -9.50365667	     -2.04459735	      0.69656163	     -0.91163674	      1.26438845	     -0.08983110	      8.51518326	      2.53057770	     -3.63679700	      4.31800260	      0.07536336	      4.55714764	    -12.28175466	     -7.37025769	      7.40744779	     -2.28386894	      3.76465926	      1.90119922	      0.03318219	      7.64016237	     -3.32179930	     -7.37025769	      2.79379793	     -1.84934176	     -2.93275940	    -27.15143574	    -32.16345556	     16.47516764	    117.77262836	     99.26762589	    -39.18151777	    -25.72937649	      2.93505006	    125.85301949	     98.52704615
      0.03333330	     -9.71520461	     -1.99081915	      0.88027999	     -0.91310371	      1.26622071	     -0.08892210	      8.70846572	      2.46810109	     -3.66798964	      4.17630512	      0.07289027	      4.39359558	    -12.45503887	     -7.36883876	      7.73823256	     -2.20267233	      4.77999685	      1.97627454	      0.03449250	      7.00336546	     -4.90190748	     -7.36883876	      3.02485560	     -1.95158517	     -3.14088446	    -26.88294180	    -31.97608560	     16.71240012	    116.89712333	    104.16803911	    -39.45178077	    -25.55102849	      2.36691887	    125.20905809	    104.19314451
      0.03750000	     -9.83626869	     -1.97264987	      0.98286721	     -0.91371618	      1.26262593	     -0.08868797	      8.84674299	      2.48041012	     -3.58243326	      4.07215655	      0.07107254	      4.37326498	    -12.55801120	     -7.38334642	      7.99196835	     -2.19193537	      5.05188398	      2.12178613	      0.03703215	      6.99616526	     -5.08865174	     -7.38334642	      3.04284887	     -2.00409757	     -3.29828272	    -27.13483196	    -31.87697366	     16.76841671	    116.87358073	    103.59347589	    -40.21321801	    -25.11051388	      1.68506883	    125.54850175	    104.96694358
      0.04166670	     -9.93829175	     -1.97049202	      1.13595715	     -0.91444130	      1.25653076	     -0.08973923	      8.98717038	      2.47526984	     -3.50668321	      4.02207574	      0.07019846	      4.47867781	    -12.67003655	     -7.37987229	      8.23073953	     -2.18465718	      5.35846674	      2.24551229	      0.03919158	      7.05777121	     -5.42071211	     -7.37987229	      2.96656854	     -2.04487710	     -3.34552307	    -27.46802481	    -31.93155290	     16.52901785	    117.43301595	    102.85015004	    -40.58745301	    -25.21720988	      1.42199769	    126.10487478	    104.40990415
      0.04583330	    -10.12731349	     -1.97540197	      1.04979127	     -0.91163703	      1.25783397	     -0.08903668	      9.22961181	      2.48336260	     -3.54364541	      4.15021081	      0.07243484	      4.21216242	    -13.39258449	     -7.41539537	      8.44267974	     -2.20834886	      5.44969340	      2.22957688	      0.03891346	      7.12348938	     -5.36724956	     -7.41539537	      3.17510365	     -2.05326328	     -3.31077892	    -28.09495245	    -31.58585468	     16.02135713	    117.78446204	    102.85741390	    -40.47290046	    -25.15513404	      1.61839634	    126.04629948	    105.56394324
      0.05000000	    -10.14247417	     -1.97813164	      1.05013157	     -0.91352194	      1.26108610	     -0.09069225	      9.24312153	      2.47931860	     -3.55094862	      4.14404352	      0.07232720	      4.21604687	    -13.39806162	     -7.41540117	      8.44601493	     -2.19726631	      5.44763846	      2.22704849	      0.03886933	      7.12698591	     -5.36964240	     -7.41540117	      3.17363486	     -2.05160036	     -3.30197098	    -28.09144741	    -31.58725878	     16.01875386	    117.78227012	    102.85705964	    -40.47688214	    -25.15456625	      1.61708256	    126.04345248	    105.56397762
      0.05416670	    -10.37262431	     -2.01110224	      1.21524419	     -0.91108966	      1.26160351	     -0.09196295	      9.41233183	      2.46255392	     -3.76755917	      4.01873788	      0.07014021	      3.91270368	    -13.91557147	     -7.43297633	      8.72733481	     -2.14002252	      5.88285178	      2.35031960	      0.04102082	      6.97988474	     -5.90544011	     -7.43297633	      3.52383317	     -1.88769426	     -3.22868252	    -28.38254948	    -31.26586782	     15.44969505	    117.05132963	    100.61835937	    -40.14711033	    -24.98816316	      1.50182062	    124.72381108	    103.81136251
      0.05833330	    -10.48548285	     -1.98554928	      1.25406301	     -0.91084030	      1.26072733	     -0.09248755	      9.46008687	      2.36361464	     -3.90162661	      3.97408423	      0.06936085	      3.97991750	    -13.83990090	     -7.43843728	      8.84515924	     -2.07808306	      5.86413127	      2.41913044	      0.04222179	      7.06584266	     -5.73503869	     -7.43843728	      3.69593097	     -1.78945752	     -3.21159965	    -28.46913487	    -31.14472677	     15.15075562	    116.61520867	    102.19052760	    -39.94075331	    -25.15986855	      1.57493869	    123.94960194	    105.92027270
      0.06250000	    -10.59514421	     -1.96302739	      1.34545560	     -0.91106065	      1.25589753	     -0.09170789	      9.50576130	      2.31130512	     -3.67416935	      3.86572932	      0.06746970	      4.09024169	    -13.89977243	     -7.44614342	      8.97435393	     -2.03590083	      6.01976832	      2.48218138	      0.04332224	      7.23744270	     -5.82167207	     -7.44614342	      3.82291488	     -1.73058034	     -3.17081818	    -28.83860130	    -31.01774880	     14.77686220	    116.75841050	    102.11907101	    -39.45149491	    -25.71946673	      2.02103782	    123.36581732	    105.90793752
      0.06666670	    -10.64269577	     -1.97118671	      1.32705582	     -0.91101800	      1.25262284	     -0.09287899	      9.52316366	      2.28091859	     -3.50614981	      3.86416689	      0.06744244	      3.83450978	    -14.62496221	     -7.44710943	      8.99184133	     -2.01965326	      6.11653767	      2.49652389	      0.04357256	      7.42016321	     -5.83710186	     -7.44710943	      3.95790275	     -1.69317693	     -3.14498340	    -29.15421548	    -31.05996996	     14.49859519	    117.01931047	    100.65475834	    -38.92971111	    -25.98550705	      2.05758749	    122.86428308	    104.11899628
      0.07083330	    -10.81863226	     -1.98556364	      1.35185539	     -0.91086491	      1.24990384	     -0.09281083	      9.74590662	      2.28342570	     -3.48401986	      3.91042252	      0.06824975	      3.98497575	    -14.67915609	     -7.46723206	      9.18857258	     -1.98456613	      6.38504317	      2.62348256	      0.04578841	      7.63328412	     -6.09401899	     -7.46723206	      4.21767115	     -1.57234121	     -2.38271649	    -30.56391237	    -30.58486885	     12.95495296	    117.65205601	    101.42186057	    -37.29166958	    -27.01121179	      3.26743127	    122.16948364	    105.07706201
      0.07500000	    -10.93358416	     -1.97068378	      1.34945588	     -0.91000382	      1.25132798	     -0.09252930	      9.88676791	      2.27886350	     -3.38873988	      3.92973797	      0.06858687	      4.15378148	    -14.69413272	     -7.47352676	      9.25819130	     -1.96218933	      6.47262607	      2.65946596	      0.04641644	      7.87361708	     -5.87730058	     -7.47352676	      4.39078970	     -1.60980277	     -2.41895027	    -30.45947046	    -30.68838356	     12.87448726	    117.69896448	    101.89269108	    -37.17173633	    -26.95740454	      2.81253186	    121.72765928	    105.40219652
